<?xml version="1.0" encoding="UTF-8"?>
<svg id="Layer_1" data-name="Layer 1" xmlns="http://www.w3.org/2000/svg" viewBox="-113 144 2146 761">
  <defs>
    <style>
      .cls-1 {
        fill: #fff;
      }
    </style>
  </defs>
  <path class="cls-1" d="M129.88,662.17v-275.61h77.34v131.22h4.11c6.58-34.97,29.62-67.05,82.68-67.05s81.45,34.97,81.45,81.04v130.4h-77.34v-104.49c0-28.8-11.11-37.85-46.48-37.85s-44.43,8.64-44.43,35.38v106.95h-77.34Z"/>
  <path class="cls-1" d="M394.39,558.51c0-67.46,48.95-107.78,118.06-107.78s117.24,35.79,117.24,102.43c0,6.99-.41,12.34-1.23,19.75h-162.49c1.23,25.09,12.34,32.09,45.25,32.09s39.49-5.35,39.49-17.69v-4.52h77.34v4.94c0,46.07-44.02,78.57-113.95,78.57s-119.71-30.03-119.71-107.78ZM467.2,533.83h87.62c-2.88-17.69-15.22-23.86-44.02-23.86s-40.31,6.17-43.6,23.86Z"/>
  <path class="cls-1" d="M650.26,662.17v-275.61h77.34v275.61h-77.34Z"/>
  <path class="cls-1" d="M752.27,662.17v-275.61h77.34v275.61h-77.34Z"/>
  <path class="cls-1" d="M848.12,558.51c0-67.46,48.95-107.78,120.94-107.78s120.94,40.31,120.94,107.78-48.95,107.78-120.94,107.78-120.94-40.73-120.94-107.78ZM1013.48,558.51c0-30.03-9.46-39.9-44.43-39.9s-44.43,9.87-44.43,39.9,9.46,39.49,44.43,39.49,44.43-9.46,44.43-39.49Z"/>
  <path class="cls-1" d="M1108.51,662.17v-275.61h77.34v121.76h4.11c6.17-34.55,29.21-57.59,78.16-57.59,60.88,0,95.02,40.31,95.02,107.78s-34.97,107.78-98.32,107.78c-48.54,0-73.22-18.92-79.8-60.06h-4.11v55.95h-72.4ZM1236.85,595.53c35.79,0,48.13-9.46,48.13-37.02s-12.34-37.43-48.13-37.43-51.01,5.76-51.01,34.97v2.88c0,30.03,16.45,36.61,51.01,36.61Z"/>
  <path class="cls-1" d="M1383.71,435.93v-49.36h77.34v49.36h-77.34ZM1383.71,662.17v-207.33h77.34v207.33h-77.34Z"/>
  <path class="cls-1" d="M1485.72,662.17v-275.61h77.34v275.61h-77.34Z"/>
  <path class="cls-1" d="M1587.74,662.17v-275.61h77.34v275.61h-77.34Z"/>
  <path class="cls-1" d="M1689.75,662.17v-78.98h100.37v78.98h-100.37Z"/>
</svg>
